Coordinates
version=1
nRows=34
nColumns=19
inDegrees=yes

Units are S.I. units (second, meters, Newtons, ...)
If the header above contains a line with 'inDegrees', this indicates whether rotational values are in degrees (yes) or radians (no).

endheader
time	pelvis_tilt	pelvis_list	pelvis_rotation	pelvis_tx	pelvis_ty	pelvis_tz	hip_flexion_r	hip_adduction_r	hip_rotation_r	knee_angle_r	knee_angle_r_beta	ankle_angle_r	hip_flexion_l	hip_adduction_l	hip_rotation_l	knee_angle_l	knee_angle_l_beta	ankle_angle_l
     31.25000000	     -3.34288012	      2.04289550	     -3.94036736	      0.97339344	      0.96479978	     -0.55961335	     22.25587822	     -8.39483616	     -6.31403300	     56.37395304	      0.98391109	     -3.85018097	      4.45104587	      5.87036720	     -4.32121389	      0.21191466	      0.00369861	     -0.79027355
     31.26000000	     -3.44333285	      2.00529848	     -4.01782521	      0.97231244	      0.96524083	     -0.56000241	     22.98643378	     -8.26518727	     -6.44455539	     55.58863413	      0.97020469	     -2.66672029	      4.12394020	      5.88919746	     -4.29336938	      0.22215246	      0.00387729	     -0.22416742
     31.27000000	     -3.57009106	      2.01823710	     -4.16376903	      0.97100793	      0.96547101	     -0.56034192	     23.76677345	     -8.19175512	     -6.58111037	     54.77630368	      0.95602685	     -1.23734998	      3.87413904	      5.95140843	     -4.64564637	      0.23263715	      0.00406028	     -0.06612472
     31.28000000	     -3.73023236	      1.99090146	     -4.26233749	      0.96948491	      0.96562669	     -0.56055815	     24.50293868	     -8.01510122	     -6.71210954	     53.65681331	      0.93648806	     -0.63422017	      3.67233518	      5.96191475	     -4.83437801	      0.24735681	      0.00431719	      0.22399364
     31.29000000	     -3.84788628	      1.99176493	     -4.34513683	      0.96818927	      0.96573234	     -0.56088536	     25.14728026	     -7.93251396	     -6.94733309	     52.49783054	      0.91625999	      0.68447796	      3.40228793	      6.01003523	     -4.91420781	      0.26979785	      0.00470886	      0.51113427
     31.30000000	     -3.98884070	      2.00485399	     -4.49275875	      0.96681827	      0.96572152	     -0.56101738	     25.76643373	     -7.78183333	     -7.05181661	     51.09353065	      0.89175034	      1.23480839	      3.17693812	      6.05535552	     -5.07501640	      0.29390222	      0.00512956	      0.71537740
     31.31000000	     -4.09881286	      2.01805143	     -4.57682525	      0.96545760	      0.96590012	     -0.56118500	     26.27653583	     -7.67340052	     -7.29435777	     49.54535027	      0.86472949	      1.74795880	      2.90424899	      6.09511297	     -5.13797083	      0.33161926	      0.00578785	      0.82390896
     31.32000000	     -4.22247627	      2.04647604	     -4.70144302	      0.96410017	      0.96593763	     -0.56136653	     26.78639888	     -7.62557495	     -7.60191530	     47.86794461	      0.83545324	      2.71537970	      2.66593181	      6.15644807	     -5.30496965	      0.36706159	      0.00640643	      1.04182056
     31.33000000	     -4.35695054	      2.04971019	     -4.81227538	      0.96250575	      0.96586799	     -0.56137771	     27.29442679	     -7.52930714	     -7.85589405	     46.14314092	      0.80534974	      3.59395135	      2.47038444	      6.18388065	     -5.51462847	      0.43075509	      0.00751809	      1.29907413
     31.34000000	     -4.51017378	      2.06961346	     -5.01793418	      0.96102818	      0.96569240	     -0.56127868	     27.77467525	     -7.35674413	     -7.96440497	     44.30013046	      0.77318314	      4.07941432	      2.29228009	      6.22171749	     -5.75811493	      0.49798339	      0.00869145	      1.49383588
     31.35000000	     -4.62839145	      2.08573704	     -5.07099399	      0.95964261	      0.96562421	     -0.56121108	     28.09138157	     -7.22746088	     -8.16804264	     42.21433056	      0.73677906	      3.99232506	      2.08620743	      6.25423678	     -5.88944226	      0.59954302	      0.01046400	      1.83617995
     31.36000000	     -4.76229162	      2.09305312	     -5.20241774	      0.95807288	      0.96544470	     -0.56096918	     28.38787713	     -6.99739691	     -8.23665789	     40.03919123	      0.69881572	      3.99920790	      1.92377439	      6.25993099	     -5.98437692	      0.72793515	      0.01270487	      2.22560947
     31.37000000	     -4.88476069	      2.08418569	     -5.26853379	      0.95673271	      0.96525232	     -0.56071463	     28.58893432	     -6.79271757	     -8.33762341	     37.79766560	      0.65969371	      3.57174429	      1.74623401	      6.24912044	     -6.16866591	      0.88314505	      0.01541379	      2.50630750
     31.38000000	     -5.01164453	      2.10799623	     -5.34702017	      0.95536314	      0.96500478	     -0.56059940	     28.74784758	     -6.62654889	     -8.50613045	     35.33164201	      0.61665348	      2.82276648	      1.60378331	      6.27973303	     -6.28826073	      1.09524018	      0.01911555	      2.72714132
     31.39000000	     -5.15297321	      2.12202264	     -5.32924299	      0.95393246	      0.96458691	     -0.56041970	     28.81534925	     -6.48386990	     -8.84903040	     32.81384089	      0.57270956	      2.52769713	      1.52231282	      6.28167915	     -6.37534145	      1.40595179	      0.02453849	      3.11186210
     31.40000000	     -5.27392987	      2.09652705	     -5.30542946	      0.95270493	      0.96436595	     -0.56004073	     28.73962088	     -6.28917294	     -9.32976196	     30.07116354	      0.52484081	      1.44131896	      1.43719949	      6.22726699	     -6.44414131	      1.78517859	      0.03115724	      3.59535437
     31.41000000	     -5.39051445	      2.09272651	     -5.21479214	      0.95145847	      0.96394853	     -0.55968794	     28.66920363	     -6.10868765	     -9.69914517	     27.45572036	      0.47919272	      1.07895057	      1.33905928	      6.19813829	     -6.33959777	      2.14070526	      0.03736236	      3.94199797
     31.42000000	     -5.50509872	      2.07786865	     -5.18554591	      0.95035630	      0.96358047	     -0.55921253	     28.50235111	     -5.86543000	    -10.13579437	     24.67352288	      0.43063421	      0.04835158	      1.27884859	      6.13485556	     -6.47990722	      2.60934224	      0.04554161	      4.49936780
     31.43000000	     -5.62304495	      2.04481102	     -5.11234065	      0.94919425	      0.96305550	     -0.55859967	     28.32673043	     -5.58523930	    -10.47614040	     21.98180952	      0.38365495	     -0.60866796	      1.22602933	      6.05161527	     -6.48444115	      3.05817584	      0.05337524	      4.87997823
     31.44000000	     -5.73439789	      2.02076932	     -4.99113643	      0.94817942	      0.96248472	     -0.55786686	     28.14112042	     -5.29667408	    -10.65605535	     19.37279350	      0.33811903	     -1.31971368	      1.17378153	      5.95608956	     -6.47319363	      3.57037123	      0.06231473	      5.49442252
     31.45000000	     -5.82268156	      1.97364321	     -4.87537072	      0.94735111	      0.96191363	     -0.55702372	     27.90946787	     -4.94645691	    -10.60367483	     16.84306213	      0.29396689	     -2.00401127	      1.11466711	      5.82415880	     -6.45760812	      4.13646865	      0.07219500	      6.03181773
     31.46000000	     -5.90537465	      1.90872881	     -4.68041576	      0.94653336	      0.96125871	     -0.55608771	     27.69583478	     -4.59694712	    -10.34262339	     14.54416517	      0.25384357	     -2.08230787	      1.03584450	      5.66707578	     -6.33714800	      4.67385563	      0.08157417	      6.46573675
     31.47000000	     -5.99162667	      1.87228855	     -4.56597597	      0.94580140	      0.96055267	     -0.55516357	     27.49444976	     -4.24168625	     -9.68948140	     12.27998596	      0.21432619	     -2.86887863	      0.99267621	      5.53515194	     -6.33617097	      5.29045448	      0.09233585	      7.14573975
     31.48000000	     -6.05501819	      1.84258821	     -4.44219357	      0.94522936	      0.95976332	     -0.55421032	     27.31288890	     -3.93823034	     -8.82037287	     10.31095258	      0.17996007	     -3.06259120	      0.91453015	      5.41388047	     -6.25680610	      5.90996126	      0.10314828	      7.74921840
     31.49000000	     -6.09698072	      1.77991945	     -4.27195764	      0.94484750	      0.95898954	     -0.55319540	     27.11183871	     -3.66034747	     -7.90145815	      8.56794291	      0.14953881	     -2.97352743	      0.82436087	      5.25283163	     -6.19784580	      6.57141279	      0.11469279	      8.32722190
     31.50000000	     -6.12760432	      1.71476435	     -4.12590056	      0.94467719	      0.95821303	     -0.55198692	     26.97082437	     -3.39621725	     -6.82286028	      7.14167115	      0.12464568	     -2.62932841	      0.68037842	      5.07873021	     -6.08666571	      7.18052766	      0.12532385	      8.86571407
     31.51000000	     -6.14682077	      1.66929028	     -4.02364737	      0.94446156	      0.95737087	     -0.55078560	     26.87052682	     -3.19041728	     -5.92860850	      5.94224212	      0.10371169	     -2.40773758	      0.59754394	      4.91636694	     -6.04858297	      7.92331323	      0.13828790	      9.45998170
     31.52000000	     -6.15262879	      1.59249204	     -3.81917789	      0.94448138	      0.95653565	     -0.54954717	     26.70568004	     -3.01752692	     -5.26023461	      4.86688874	      0.08494323	     -2.08050736	      0.49774555	      4.71265051	     -5.93974769	      8.68559017	      0.15159215	     10.12981590
     31.53000000	     -6.12701399	      1.48397524	     -3.62002124	      0.94470322	      0.95568882	     -0.54811387	     26.48823184	     -2.82076925	     -4.79334502	      3.96340070	      0.06917439	     -1.68222545	      0.39415761	      4.45717138	     -5.90709663	      9.51084398	      0.16599554	     10.72940624
     31.54000000	     -6.11316280	      1.40561117	     -3.38691241	      0.94494534	      0.95466685	     -0.54679033	     26.32434643	     -2.69904514	     -4.57502353	      3.28381790	      0.05731343	     -1.40038836	      0.37780226	      4.23211299	     -5.82246187	     10.46789579	      0.18269925	     11.35304790
     31.55000000	     -6.08916775	      1.29237647	     -3.13237532	      0.94528473	      0.95360764	     -0.54521843	     26.20839831	     -2.54327683	     -4.45663079	      2.89611179	      0.05054669	     -1.03032589	      0.39410152	      3.93344560	     -5.74677425	     11.53841470	      0.20138333	     12.04103334
     31.56000000	     -6.01793556	      1.18023054	     -2.77293703	      0.94590061	      0.95261724	     -0.54372868	     25.99859669	     -2.44491781	     -4.52847273	      2.64766934	      0.04621055	     -0.66102410	      0.35650238	      3.64410656	     -5.47466949	     12.62263160	      0.22030648	     12.59195844
     31.57000000	     -5.96359844	      1.06851476	     -2.49492843	      0.94655331	      0.95139109	     -0.54212381	     25.90408992	     -2.33033693	     -4.63167784	      2.72765138	      0.04760650	     -0.35281336	      0.34732981	      3.34447664	     -5.27664868	     13.73352525	      0.23969523	     13.17161893
     31.58000000	     -5.88639614	      0.94220795	     -2.07975423	      0.94742127	      0.95024536	     -0.54048148	     25.79174765	     -2.24750341	     -4.83219485	      3.01687224	      0.05265435	      0.02589168	      0.35178465	      3.00231054	     -4.98913176	     14.92714694	      0.26052786	     13.77950272
